<?xml version="1.0" encoding="UTF-8"?>
<!DOCTYPE svg PUBLIC "-//W3C//DTD SVG 1.1//EN" "http://www.w3.org/Graphics/SVG/1.1/DTD/svg11.dtd">
<!-- Creator: CorelDRAW SE (Wersja OEM) -->
<svg xmlns="http://www.w3.org/2000/svg" xml:space="preserve" width="18.4215mm" height="24.5014mm" version="1.1" style="shape-rendering:geometricPrecision; text-rendering:geometricPrecision; image-rendering:optimizeQuality; fill-rule:evenodd; clip-rule:evenodd"
viewBox="0 0 194.15 258.22"
 xmlns:xlink="http://www.w3.org/1999/xlink">
 <defs>
  <style type="text/css">
   <![CDATA[
    .fil0 {fill:#414141}
   ]]>
  </style>
 </defs>
 <g id="Warstwa_x0020_1">
  <metadata id="CorelCorpID_0Corel-Layer"/>
  <path class="fil0" d="M23.27 122.02c-0.84,0.92 -4.59,5.05 -4.87,5.82 -0.07,0.77 -4.8,11.69 4.42,16.05 6.33,2.99 14.32,-0.04 20.14,1.79 -0.14,2.27 -33.14,37.77 -38.01,43.72 -2.3,2.81 -4.45,4.04 -4.88,8.05 -0.56,5.15 2.21,9.81 7.16,12.07 7.59,3.47 70.13,-0.53 73.29,1.6 1.18,0.85 1.48,7.51 1.73,10.65 -7.92,15.57 -5.53,9.44 -14.01,22.85 -2.35,3.78 -4.21,6.47 -0.98,10.99 0.6,0.84 1.46,1.63 2.43,2.04 2.1,0.88 7.77,0.5 10.26,0.5l30.34 0c4.63,0 11.11,-0.47 15.32,-0.25 1.55,-0.24 3.58,-3.16 3.85,-5.15 0.63,-4.8 -0.46,-4.57 -1.76,-7.23 -8.95,-14.73 -14.97,-20.99 -14.12,-35.44 3.92,-0.98 43.72,-0.32 53.38,-0.32 5.64,0 13.24,-0.43 18.6,0.03 6.83,1.04 11.35,-10.28 6.68,-17.52 -5.45,-8.44 -29.68,-33.19 -38.85,-43.73 -0.93,-1.03 -1.8,-1.43 -1.87,-2.67 3.4,-1.59 13.1,0.33 17.48,-0.76 4.47,-1.11 8.57,-4.33 8.77,-9.66 0.36,-9.54 -33.06,-43.4 -39.11,-50.22 -1.15,-1.39 -2.22,-2.19 -2.05,-5.1 5.61,-0.69 31.43,1.14 24.97,-13.8 -5.38,-12.45 -43.61,-47.4 -56.41,-62.29 -3.11,-3.05 -3.73,-4.43 -9.63,-3.93 -5.74,0.48 -48.8,49.6 -55.37,56.68l-4.11 4.39c-4.86,5.74 -4.81,13.82 1.99,18.01 3.25,2.01 8.02,1.48 12.02,1.48 3.76,-0 8.2,-0.77 6.78,2.13l-33.57 39.23z"/>
 </g>
</svg>
